<?xml version="1.0"?>
<svg xmlns="http://www.w3.org/2000/svg" xmlns:xlink="http://www.w3.org/1999/xlink" version="1.1" id="Layer_1" x="0px" y="0px" viewBox="0 0 512.001 512.001" style="enable-background:new 0 0 512.001 512.001;" xml:space="preserve" width="512px" height="512px" class=""><g><g>
	<g>
		<path d="M317.16,320.065h-29.485c-4.33,0-7.84,3.509-7.84,7.84s3.51,7.84,7.84,7.84h29.485c4.33,0,7.84-3.509,7.84-7.84    S321.489,320.065,317.16,320.065z" data-original="#000000" class="active-path" data-old_color="#7fbe44" fill="#7fbe44"/>
	</g>
</g><g>
	<g>
		<path d="M100.915,378.183c-13.872,0-25.158,11.286-25.158,25.157s11.286,25.157,25.158,25.157s25.157-11.286,25.157-25.157    S114.787,378.183,100.915,378.183z M100.915,412.818c-5.226,0-9.479-4.251-9.479-9.478c0-5.227,4.252-9.478,9.479-9.478    s9.478,4.251,9.478,9.478C110.392,408.567,106.141,412.818,100.915,412.818z" data-original="#000000" class="active-path" data-old_color="#7fbe44" fill="#7fbe44"/>
	</g>
</g><g>
	<g>
		<path d="M436.276,378.183c-13.872,0-25.157,11.286-25.157,25.157s11.285,25.157,25.157,25.157s25.157-11.286,25.157-25.157    S450.148,378.183,436.276,378.183z M436.276,412.818c-5.226,0-9.478-4.251-9.478-9.478c0-5.227,4.251-9.478,9.478-9.478    c5.227,0,9.478,4.251,9.478,9.478C445.753,408.567,441.502,412.818,436.276,412.818z" data-original="#000000" class="active-path" data-old_color="#7fbe44" fill="#7fbe44"/>
	</g>
</g><g>
	<g>
		<path d="M511.407,355.289c-1.995-15.685-8.934-30.724-19.732-42.297c-10.313-11.054-23.913-18.926-38.662-22.268l-31.158-29.763    c-19.493-18.62-45.074-28.875-72.032-28.875h-60.428c-33.469,0-67.007,7.886-96.987,22.803c-3.877,1.93-5.455,6.636-3.527,10.511    c1.93,3.877,6.636,5.456,10.511,3.527c27.823-13.844,58.945-21.162,90.003-21.162h39.973l6.318,46.729l-193.654,7.514    l29.402-17.244c3.735-2.191,4.987-6.994,2.796-10.729c-2.19-3.734-6.993-4.988-10.729-2.797l-54.679,32.07l-27.605,1.228    c-8.751,0.389-17.187,2.294-25.022,5.473c-0.209,0.067-0.418,0.134-0.624,0.219c-16.158,6.697-29.259,18.607-37.473,33.646    c-1.745,3.194-3.254,6.513-4.538,9.919c-2.562,6.797-4.446,13.917-6.592,20.855c-1.779,5.753-3.559,11.507-5.338,17.261    c-0.192,0.622-0.385,1.244-0.577,1.866c-2.193,7.089-0.924,14.58,3.48,20.552c4.404,5.972,11.187,9.397,18.607,9.397h30.028    c7.938,18.525,26.349,31.536,47.745,31.536c21.396,0,39.807-13.012,47.745-31.536c0,0,28.339,0,28.37,0h211.5    c7.939,18.525,26.35,31.536,47.745,31.536c21.396,0,39.807-13.012,47.745-31.536h20.144c4.33,0,7.84-3.509,7.84-7.84v-51.241    C512.003,361.513,511.802,358.389,511.407,355.289z M474.425,318.261c0.112,0.092,0.224,0.184,0.334,0.277    c9.962,8.316,17.06,19.875,20,32.511c-11.539-2.028-20.334-12.123-20.334-24.235V318.261z M349.824,247.767v-0.001    c22.904,0,44.64,8.713,61.201,24.534l19.388,18.519l-78.987,3.065l-6.234-46.117H349.824z M29.525,356.128    c0.338-0.777,0.689-1.547,1.063-2.307c0.008-0.019,0.018-0.037,0.027-0.055c4.736-9.625,11.932-17.698,20.67-23.521v2.165    c0,12.717-9.697,23.211-22.085,24.478C29.307,356.634,29.415,356.381,29.525,356.128z M130.378,424.403    c-3.701,5.167-8.755,9.331-14.544,11.959c-4.674,2.122-9.787,3.217-14.919,3.217c-7.86,0-15.597-2.604-21.857-7.357    c-6.448-4.895-11.162-11.912-13.195-19.753c-0.77-2.972-1.188-6.058-1.188-9.131c0-19.982,16.257-36.239,36.239-36.239    s36.24,16.257,36.24,36.263C137.149,410.868,134.748,418.306,130.378,424.403z M152.62,408.045L152.62,408.045    c0.142-1.564,0.214-3.136,0.214-4.705c0-28.628-23.291-51.919-51.919-51.919s-51.92,23.291-51.92,51.919    c0,0.016,0.001,0.031,0.001,0.047c0,1.506,0.073,3.119,0.212,4.657H23.142c-2.388,0-4.571-1.103-5.987-3.025    c-1.417-1.921-1.825-4.332-1.12-6.613l7.98-25.801c0.886,0.059,1.774,0.091,2.663,0.091c22.214,0,40.287-18.072,40.287-40.287    v-9.007c0-0.199-0.01-0.398-0.014-0.597c4.789-1.477,9.807-2.377,14.964-2.606c0,0,29.499-1.312,29.502-1.312l45.751-1.775    c-2.946,18.561-7.023,59.253,6.76,90.932H152.62z M279.914,408.044h-98.507c-16.747-29.661-10.97-75.429-8.212-91.554    l164.221-6.372c0.928,16.232,0.937,56.315-18.82,79.842C309.076,401.294,296.421,407.208,279.914,408.044z M472.437,405.699    c-1.252,18.679-17.252,33.882-36.161,33.882c-19.562,0-36.24-16.682-36.24-36.24c0-19.982,16.257-36.239,36.239-36.239    s36.239,16.257,36.239,36.239C472.515,404.132,472.489,404.918,472.437,405.699z M496.324,408.044h-8.342    c2.633-28.946-20.065-55.081-49.038-56.555c-0.884-0.045-1.773-0.068-2.668-0.068c-28.628,0-51.919,23.29-51.919,51.919    c0,1.551,0.073,3.146,0.213,4.704h-61.927c2.841-2.411,5.512-5.083,7.992-8.04c23.32-27.813,23.563-71.953,22.479-90.494    l95.414-3.702c3.871,0.807,7.591,1.979,11.128,3.479c-0.6,2.782-0.912,5.629-0.912,8.521v9.007    c0,21.303,16.623,38.787,37.579,40.185V408.044z" data-original="#000000" class="active-path" data-old_color="#7fbe44" fill="#7fbe44"/>
	</g>
</g><g>
	<g>
		<path d="M297.903,95.188c-3.062-3.061-8.026-3.061-11.086,0l-56.36,56.361l-6.825-17.668c-1.561-4.037-6.098-6.043-10.138-4.487    c-4.039,1.56-6.048,6.099-4.487,10.138l11.165,28.901c0.955,2.472,3.096,4.294,5.691,4.844c0.539,0.114,1.083,0.169,1.621,0.169    c2.057,0,4.058-0.81,5.544-2.295l64.876-64.876C300.965,103.213,300.965,98.25,297.903,95.188z" data-original="#000000" class="active-path" data-old_color="#7fbe44" fill="#7fbe44"/>
	</g>
</g><g>
	<g>
		<path d="M254.338,56.742c-42.143,0-76.429,34.286-76.429,76.429c0,42.142,34.287,76.428,76.429,76.428    s76.429-34.286,76.429-76.428C330.767,91.027,296.482,56.742,254.338,56.742z M254.338,193.917    c-33.497,0-60.749-27.252-60.749-60.748s27.253-60.749,60.749-60.749s60.749,27.252,60.749,60.749    C315.088,166.666,287.836,193.917,254.338,193.917z" data-original="#000000" class="active-path" data-old_color="#7fbe44" fill="#7fbe44"/>
	</g>
</g></g> </svg>
