<?xml version="1.0"?>
<svg xmlns="http://www.w3.org/2000/svg" xmlns:xlink="http://www.w3.org/1999/xlink" version="1.1" id="Capa_1" x="0px" y="0px" viewBox="0 0 480.177 480.177" style="enable-background:new 0 0 480.177 480.177;" xml:space="preserve" width="512px" height="512px" class=""><g><g>
	<g>
		<path d="M479.98,6.327c-0.97-4.31-5.251-7.018-9.561-6.048c-0.12,0.027-0.24,0.057-0.359,0.09    c-20.65,5.169-33.2,26.099-28.031,46.75c0.24,0.96,0.518,1.911,0.831,2.85l3.688,11.04c3.912,11.806-2.488,24.548-14.294,28.46    c-0.086,0.028-0.172,0.056-0.258,0.084v-9.456c0-17.673-14.327-32-32-32h-168c-2.166-0.013-4.244,0.853-5.76,2.4l-224,232    c-3.02,3.139-2.974,8.118,0.104,11.2l184,184.056c3.124,3.123,8.188,3.123,11.312,0l232-232c1.5-1.5,2.344-3.534,2.344-5.656    V106.313l4.472-1.376c20.341-6.248,31.765-27.802,25.517-48.142c-0.091-0.298-0.186-0.594-0.285-0.89l-3.688-11.008    c-3.935-11.822,2.458-24.595,14.28-28.53c0.54-0.18,1.087-0.339,1.64-0.478C478.242,14.918,480.95,10.638,479.98,6.327z     M415.995,94.497l-21.08,6.488c-10.731-19.113-34.924-25.908-54.036-15.177c-19.113,10.731-25.908,34.924-15.177,54.036    s34.924,25.908,54.036,15.177c12.612-7.081,20.373-20.461,20.257-34.924c0-1.312-0.264-2.544-0.384-3.824l16.384-5.04v125.552    l-224,224L19.195,288l216.2-223.904h164.6c8.837,0,16,7.163,16,16V94.497z M352.346,122.446c0,0.001,0.001,0.002,0.001,0.003    c1.298,4.223,5.774,6.595,9.997,5.297c0.001,0,0.002-0.001,0.003-0.001l21.544-6.632c-0.531,13.275-11.723,23.606-24.998,23.075    s-23.606-11.723-23.075-24.998c0.531-13.275,11.723-23.606,24.998-23.075c7.275,0.291,14.027,3.861,18.363,9.71l-21.536,6.624    C353.42,113.746,351.048,118.222,352.346,122.446z" data-original="#000000" class="active-path" data-old_color="#7fbe44" fill="#7fbe44"/>
	</g>
</g><g>
	<g>
		<path d="M335.995,232.097h-224c-13.255,0-24,10.745-24,24c0,13.255,10.745,24,24,24h224c13.255,0,24-10.745,24-24    C359.995,242.842,349.25,232.097,335.995,232.097z M335.995,264.096h-224c-4.418,0-8-3.582-8-8c0-4.418,3.582-8,8-8h224    c4.418,0,8,3.582,8,8C343.995,260.515,340.414,264.096,335.995,264.096z" data-original="#000000" class="active-path" data-old_color="#7fbe44" fill="#7fbe44"/>
	</g>
</g><g>
	<g>
		<path d="M223.995,136.097c-22.091,0-40,17.909-40,40c0.026,22.08,17.92,39.974,40,40c22.091,0,40-17.909,40-40    S246.087,136.097,223.995,136.097z M223.995,200.097c-13.255,0-24-10.745-24-24s10.745-24,24-24s24,10.745,24,24    S237.25,200.097,223.995,200.097z" data-original="#000000" class="active-path" data-old_color="#7fbe44" fill="#7fbe44"/>
	</g>
</g><g>
	<g>
		<path d="M223.995,296.096c-22.091,0-40,17.909-40,40c0.026,22.08,17.92,39.974,40,40c22.091,0,40-17.909,40-40    C263.995,314.005,246.087,296.096,223.995,296.096z M223.995,360.096c-13.255,0-24-10.745-24-24s10.745-24,24-24s24,10.745,24,24    S237.25,360.096,223.995,360.096z" data-original="#000000" class="active-path" data-old_color="#7fbe44" fill="#7fbe44"/>
	</g>
</g></g> </svg>
