<?xml version="1.0"?>
<svg xmlns="http://www.w3.org/2000/svg" xmlns:xlink="http://www.w3.org/1999/xlink" version="1.1" id="Capa_1" x="0px" y="0px" viewBox="0 0 512 512" style="enable-background:new 0 0 512 512;" xml:space="preserve" width="512px" height="512px"><g><g>
	<g>
		<path d="M90,296H50c-5.523,0-10,4.478-10,10v40c0,5.522,4.477,10,10,10h40c5.523,0,10-4.478,10-10v-40    C100,300.478,95.523,296,90,296z M80,336H60v-20h20V336z" data-original="#000000" class="active-path" data-old_color="#7fbe44" fill="#7fbe44"/>
	</g>
</g><g>
	<g>
		<path d="M502,116h-40c-5.523,0-10,4.478-10,10c0,11.028-8.972,20-20,20s-20-8.972-20-20c0-5.522-4.477-10-10-10H10    c-5.523,0-10,4.478-10,10v260c0,5.522,4.477,10,10,10h392c5.523,0,10-4.478,10-10c0-11.028,8.972-20,20-20s20,8.972,20,20    c0,5.522,4.477,10,10,10h40c5.523,0,10-4.478,10-10V126C512,120.478,507.523,116,502,116z M492,376h-21.266    c-4.451-17.233-20.13-30-38.734-30s-34.283,12.767-38.734,30H20V136h373.266c4.451,17.233,20.13,30,38.734,30    s34.283-12.767,38.734-30H492V376z" data-original="#000000" class="active-path" data-old_color="#7fbe44" fill="#7fbe44"/>
	</g>
</g><g>
	<g>
		<path d="M310,336H140c-5.51,0-10,4.49-10,10s4.49,10,10,10h170c5.51,0,10-4.49,10-10S315.51,336,310,336z" data-original="#000000" class="active-path" data-old_color="#7fbe44" fill="#7fbe44"/>
	</g>
</g><g>
	<g>
		<path d="M210,296h-70c-5.523,0-10,4.478-10,10c0,5.522,4.477,10,10,10h70c5.523,0,10-4.478,10-10C220,300.478,215.523,296,210,296    z" data-original="#000000" class="active-path" data-old_color="#7fbe44" fill="#7fbe44"/>
	</g>
</g><g>
	<g>
		<path d="M180,196H50c-5.523,0-10,4.478-10,10c0,5.522,4.477,10,10,10h130c5.523,0,10-4.478,10-10C190,200.478,185.523,196,180,196    z" data-original="#000000" class="active-path" data-old_color="#7fbe44" fill="#7fbe44"/>
	</g>
</g><g>
	<g>
		<path d="M350,196H214c-5.523,0-10,4.478-10,10c0,5.522,4.477,10,10,10h136c5.523,0,10-4.478,10-10    C360,200.478,355.523,196,350,196z" data-original="#000000" class="active-path" data-old_color="#7fbe44" fill="#7fbe44"/>
	</g>
</g><g>
	<g>
		<path d="M310,236H160c-5.51,0-10,4.479-10,10c0,5.51,4.49,10,10,10h150c5.51,0,10-4.49,10-10C320,240.479,315.51,236,310,236z" data-original="#000000" class="active-path" data-old_color="#7fbe44" fill="#7fbe44"/>
	</g>
</g><g>
	<g>
		<path d="M80,236H50c-5.51,0-10,4.479-10,10c0,5.51,4.49,10,10,10h30c5.51,0,10-4.49,10-10C90,240.479,85.51,236,80,236z" data-original="#000000" class="active-path" data-old_color="#7fbe44" fill="#7fbe44"/>
	</g>
</g><g>
	<g>
		<path d="M120,236c-5.51,0-10,4.479-10,10c0,5.51,4.49,10,10,10s10-4.49,10-10C130,240.479,125.51,236,120,236z" data-original="#000000" class="active-path" data-old_color="#7fbe44" fill="#7fbe44"/>
	</g>
</g><g>
	<g>
		<path d="M270,156H130c-5.523,0-10,4.478-10,10c0,5.522,4.477,10,10,10h140c5.523,0,10-4.478,10-10    C280,160.478,275.523,156,270,156z" data-original="#000000" class="active-path" data-old_color="#7fbe44" fill="#7fbe44"/>
	</g>
</g><g>
	<g>
		<path d="M432,226c-5.52,0-10,4.479-10,10c0,5.52,4.48,10,10,10c5.52,0,10-4.48,10-10C442,230.479,437.52,226,432,226z" data-original="#000000" class="active-path" data-old_color="#7fbe44" fill="#7fbe44"/>
	</g>
</g><g>
	<g>
		<path d="M432,186c-5.52,0-10,4.479-10,10c0,5.52,4.48,10,10,10c5.52,0,10-4.48,10-10C442,190.479,437.52,186,432,186z" data-original="#000000" class="active-path" data-old_color="#7fbe44" fill="#7fbe44"/>
	</g>
</g><g>
	<g>
		<path d="M432,266c-5.52,0-10,4.479-10,10c0,5.52,4.48,10,10,10c5.52,0,10-4.48,10-10C442,270.479,437.52,266,432,266z" data-original="#000000" class="active-path" data-old_color="#7fbe44" fill="#7fbe44"/>
	</g>
</g><g>
	<g>
		<path d="M432,306c-5.52,0-10,4.479-10,10c0,5.52,4.48,10,10,10c5.52,0,10-4.48,10-10C442,310.479,437.52,306,432,306z" data-original="#000000" class="active-path" data-old_color="#7fbe44" fill="#7fbe44"/>
	</g>
</g></g> </svg>
