<?xml version="1.0"?>
<svg xmlns="http://www.w3.org/2000/svg" xmlns:xlink="http://www.w3.org/1999/xlink" version="1.1" id="Layer_1" x="0px" y="0px" viewBox="0 0 300 300" style="enable-background:new 0 0 300 300;" xml:space="preserve" width="512px" height="512px" class=""><g><g>
	<g>
		<g>
			<path d="M113.71,87.097h-6.556c1.902-1.539,3.653-3.247,5.274-5.081c14.332-1.761,25.476-13.989,25.476-28.79V29.032     c0-8.003-6.513-14.516-14.516-14.516h-0.615C120.624,6.174,113.031,0,104.031,0H55.645C36.973,0,21.773,15.198,21.773,33.871     v19.355c0,14.802,11.144,27.029,25.481,28.79c1.621,1.829,3.373,3.542,5.274,5.081h-6.561c-24.015,0-43.548,19.534-43.548,43.548     v48.387c0,16.011,13.021,29.032,29.032,29.032V300h96.774v-91.935c16.011,0,29.032-13.021,29.032-29.032v-48.387     C157.258,106.631,137.724,87.097,113.71,87.097z M31.452,53.226V33.871c0-13.34,10.853-24.194,24.194-24.194h48.387     c5.337,0,9.677,4.34,9.677,9.677v4.839h9.677c2.671,0,4.839,2.168,4.839,4.839v24.194c0,6.271-3.044,11.797-7.679,15.334     c1.805-4.776,2.84-9.929,2.84-15.334V38.71h-4.839c-3.706,0-6.977-2.361-8.148-5.874l-2.879-8.642H95.71l-1.108,3.31     C92.37,34.206,86.125,38.71,79.054,38.71H36.289v14.516c0,5.405,1.035,10.558,2.84,15.334     C34.494,65.023,31.452,59.497,31.452,53.226z M45.968,53.226v-4.839h33.087c9.198,0,17.531-4.8,22.2-12.392     c1.984,5.84,6.711,10.171,12.455,11.744v5.487c0,18.673-15.198,33.871-33.871,33.871C61.166,87.097,45.968,71.898,45.968,53.226z      M81.319,125.806h-2.966L67.466,96.774h24.74L81.319,125.806z M89.515,150c0,5.337-4.34,9.677-9.677,9.677     c-5.336,0-9.677-4.34-9.677-9.677c0-5.337,4.34-9.677,9.677-9.677S89.515,144.663,89.515,150z M31.452,198.387     c-7.133,0-13.307-3.919-16.665-9.677h16.665V198.387z M75,290.323H41.129v-9.677H75V290.323z M118.548,290.323H84.677v-9.677     h33.871V290.323z M118.548,270.968H84.677v-53.226H75v53.226H41.129v-72.581h77.419V270.968z M128.226,198.387v-9.677h16.665     C141.531,194.468,135.358,198.387,128.226,198.387z M147.581,179.032h-19.355v-58.065h-9.677v67.742h-77.42v-67.742h-9.677     v58.065H12.096v-48.387c0-18.673,15.198-33.871,33.871-33.871H57.13l10.887,29.032h-22.05v43.548h67.742v-43.548H91.66     l10.887-29.032h11.163c18.673,0,33.871,15.198,33.871,33.871V179.032z M63.174,159.677h-7.529v-24.194h11.526     c-4.065,3.552-6.687,8.705-6.687,14.516C60.484,153.542,61.51,156.818,63.174,159.677z M92.505,135.484h11.526v24.194h-7.529     c1.665-2.86,2.69-6.135,2.69-9.677C99.194,144.189,96.57,139.035,92.505,135.484z" data-original="#000000" class="active-path" data-old_color="#7fbe44" fill="#7fbe44"/>
			<path d="M273.387,120.968V24.194c0-8.003-6.513-14.516-14.516-14.516h-0.89C255.977,4.06,250.655,0,244.354,0h-24.194     c-6.3,0-11.623,4.06-13.626,9.677h-0.89c-8.003,0-14.516,6.513-14.516,14.516v96.774c-13.34,0-24.194,10.853-24.194,24.194     v111.29c0,8.952,4.945,16.698,12.194,20.879c-1.587,2.327-2.516,5.134-2.516,8.153c0,8.003,6.513,14.516,14.516,14.516     c8.003,0,14.516-6.513,14.516-14.516c0-1.703-0.348-3.319-0.89-4.839h55.011c-0.547,1.519-0.895,3.135-0.895,4.839     c0,8.003,6.513,14.516,14.516,14.516s14.516-6.513,14.516-14.516c0-3.019-0.929-5.826-2.516-8.153     c7.248-4.181,12.194-11.927,12.194-20.879v-111.29C297.581,131.821,286.727,120.968,273.387,120.968z M220.161,9.677h24.194     c2.671,0,4.839,2.168,4.839,4.839s-2.168,4.839-4.839,4.839h-24.194c-2.671,0-4.839-2.168-4.839-4.839     S217.49,9.677,220.161,9.677z M205.645,19.355h0.89c2.003,5.618,7.326,9.677,13.626,9.677h24.194c6.3,0,11.623-4.06,13.626-9.677     h0.89c2.671,0,4.839,2.168,4.839,4.839v96.774h-62.903V24.194h-0.001C200.806,21.523,202.974,19.355,205.645,19.355z      M176.612,145.162c0-8.004,6.513-14.517,14.516-14.517h4.839V150c0,2.671-2.168,4.839-4.839,4.839h-14.516V145.162z      M191.129,290.323c-2.671,0-4.839-2.168-4.839-4.839c0-2.671,2.168-4.839,4.839-4.839c2.671,0,4.839,2.168,4.839,4.839     C195.968,288.155,193.799,290.323,191.129,290.323z M195.968,270.968h-4.839c-8.003,0-14.516-6.513-14.516-14.516v-9.678h14.516     c2.671,0,4.839,2.168,4.839,4.839V270.968z M273.387,290.323c-2.671,0-4.839-2.168-4.839-4.839c0-2.671,2.168-4.839,4.839-4.839     c2.671,0,4.839,2.168,4.839,4.839C278.226,288.155,276.058,290.323,273.387,290.323z M287.903,256.451     c0,8.004-6.513,14.517-14.516,14.517h-4.839v-19.355c0-2.671,2.168-4.839,4.839-4.839h14.516V256.451z M287.903,237.097h-14.516     c-8.003,0-14.516,6.513-14.516,14.516v19.355h-53.226v-19.355c0-8.003-6.513-14.516-14.516-14.516h-14.516v-72.581h14.516     c8.003,0,14.516-6.513,14.516-14.516v-19.355h53.226V150c0,8.003,6.513,14.516,14.516,14.516h14.516V237.097z M287.903,154.838     h-14.516c-2.671,0-4.839-2.168-4.839-4.839v-19.355h4.839c8.003,0.001,14.516,6.514,14.516,14.517V154.838z" data-original="#000000" class="active-path" data-old_color="#7fbe44" fill="#7fbe44"/>
		</g>
	</g>
</g></g> </svg>
